; OM File Header - Saved 2024/02/23 01:01:48
; (7.03 :patc (om-make-point 109 9) (om-make-point 385 62) (om-make-point 500 400) "" 183 0 "2024/02/20 21:25:24" "2024/02/20 22:21:45")
; End File Header
(in-package :om)(load-lib-for (quote nil))(setf *om-current-persistent* (om-load-patch1 "overtone" (quote ((let ((box (om-load-boxout "output" 0 (om-make-point 159 211) (quote ((om-load-inputfun (quote input-funbox) "" "out" nil))) nil nil))) (when (fboundp (quote set-active)) (set-active box nil)) box) (let ((box (om-load-boxin "input 3" 2 (om-make-point 227 47) "" nil nil nil))) (when (fboundp (quote set-active)) (set-active box nil)) box) (let ((box (om-load-boxin "input 2" 1 (om-make-point 186 47) "" nil nil (om-make-point 47 59)))) (when (fboundp (quote set-active)) (set-active box nil)) box) (let ((box (om-load-boxin "input" 0 (om-make-point 155 0) "" nil nil nil))) (when (fboundp (quote set-active)) (set-active box nil)) box) (let ((box (om-load-boxcall (quote genfun) "F->MC" (quote f->mc) (quote ((om-load-inputfun (quote input-funbox) "frequency (Hz)" "FREQ" 440))) (om-make-point 162 164) nil nil nil nil 1))) (when (fboundp (quote set-active)) (set-active box nil)) box) (let ((box (om-load-boxcall (quote genfun) "MC->F" (quote mc->f) (quote ((om-load-inputfun (quote input-funbox) "pitch or pitch list (midicents)" "MIDICS?" 6000))) (om-make-point 149 59) nil nil nil nil 1))) (when (fboundp (quote set-active)) (set-active box nil)) box) (let ((box (om-load-boxcall (quote genfun) "INHARM-SER" (quote inharm-ser) (quote ((om-load-inputfun (quote input-funbox) "begin" "BEGIN" 1) (om-load-inputfun (quote input-funbox) "distortion" "DIST" 1) (om-load-inputfun (quote input-funbox) "number of elements (partials)" "NPART" 1))) (om-make-point 151 105) nil nil nil nil 1))) (when (fboundp (quote set-active)) (set-active box nil)) box))) (quote ((4 0 0 0 nil 0) (6 0 4 0 nil 0) (3 0 5 0 nil 0) (5 0 6 0 nil 0) (2 0 6 1 nil 0) (1 0 6 2 nil 0))) nil 7.03))
