; OM File Header - Saved 2023/05/21 18:56:40
; (7.02 :patc (om-make-point 226 10) (om-make-point 171 73) (om-make-point 500 400) "" 183 0 "2023/05/21 16:40:40" "2023/05/21 17:14:09")
; End File Header
(in-package :om)(load-lib-for (quote ("Esquisse")))(setf *om-current-persistent* (om-load-patch1 "mod" (quote ((let ((box (om-load-boxout "output" 0 (om-make-point 122 286) (quote ((om-load-inputfun (quote input-funbox) "" "out" nil))) nil nil))) (when (fboundp (quote set-active)) (set-active box nil)) box) (let ((box (om-load-boxin "input" 0 (om-make-point 85 26) "" nil nil nil))) (when (fboundp (quote set-active)) (set-active box nil)) box) (let ((box (om-load-boxcall (quote genfun) "OMIF" (quote omif) (quote ((om-load-inputfun (quote input-funbox) "IF" "TEST" nil) (om-load-inputfun (quote input-funbox) "THEN" "ACTION" nil) (om-load-inputfun (quote input-funbox) "ELSE" "ELSE" nil))) (om-make-point 130 229) nil nil nil nil 1))) (when (fboundp (quote set-active)) (set-active box nil)) box) (let ((box (om-load-boxcall (quote bastype) "list 2" (quote list) (quote nil) (om-make-point 122 54) (om-make-point 48 30) 7200 "7200" nil))) (when (fboundp (quote set-active)) (set-active box nil)) box) (let ((box (om-load-boxcall (quote genfun) "OM<" (quote om<) (quote ((om-load-inputfun (quote input-funbox) "a number" "NUM1" 0) (om-load-inputfun (quote input-funbox) "a number" "NUM2" 1))) (om-make-point 130 84) nil nil nil nil 1))) (when (fboundp (quote set-active)) (set-active box nil)) box) (let ((box (om-load-boxcall (quote genfun) "RING-MOD 2" (quote ring-mod) (quote ((om-load-inputfun (quote input-funbox) "Chord" "CH1" 6000) (om-load-inputfun (quote input-funbox) "Chord" "CH2" 6200) (om-load-inputfunmenu1 (quote input-funmenu) "Unit" "UNIT" (quote midic) (list (list "Midics" (quote (quote midic))) (list "Freqs" (quote (quote freq))))) (om-load-inputfunmenu1 (quote input-funmenu) "Mode" "TYPE" (quote chordseq) (list (list "Chord" (quote (quote chord))) (list "ChordSeq" (quote (quote chordseq))))))) (om-make-point 216 163) nil nil nil nil 1))) (when (fboundp (quote set-active)) (set-active box nil)) box) (let ((box (om-load-boxcall (quote genfun) "OM-" (quote om-) (quote ((om-load-inputfun (quote input-funbox) "number or list" "ARG1" 0) (om-load-inputfun (quote input-funbox) "number or list" "ARG2" 0))) (om-make-point 232 128) nil nil nil nil 1))) (when (fboundp (quote set-active)) (set-active box nil)) box) (let ((box (om-load-boxcall (quote bastype) "list" (quote list) (quote nil) (om-make-point 172 98) (om-make-point 41 30) 600 "600" nil))) (when (fboundp (quote set-active)) (set-active box nil)) box) (let ((box (om-load-boxcall (quote genfun) "OM+" (quote om+) (quote ((om-load-inputfun (quote input-funbox) "number or list" "SELF" 0) (om-load-inputfun (quote input-funbox) "number or list" "NUM" 0))) (om-make-point 176 128) nil nil nil nil 1))) (when (fboundp (quote set-active)) (set-active box nil)) box) (let ((box (om-load-boxcall (quote genfun) "RING-MOD" (quote ring-mod) (quote ((om-load-inputfun (quote input-funbox) "Chord" "CH1" 6000) (om-load-inputfun (quote input-funbox) "Chord" "CH2" 6200) (om-load-inputfunmenu1 (quote input-funmenu) "Unit" "UNIT" (quote midic) (list (list "Midics" (quote (quote midic))) (list "Freqs" (quote (quote freq))))) (om-load-inputfunmenu1 (quote input-funmenu) "Mode" "TYPE" (quote chordseq) (list (list "Chord" (quote (quote chord))) (list "ChordSeq" (quote (quote chordseq))))))) (om-make-point 160 163) nil nil nil nil 1))) (when (fboundp (quote set-active)) (set-active box nil)) box))) (quote ((2 0 0 0 nil 0) (4 0 2 0 nil 0) (9 0 2 1 nil 0) (5 0 2 2 nil 0) (1 0 4 0 nil 0) (3 0 4 1 nil 0) (6 0 5 1 nil 0) (1 0 6 0 nil 0) (7 0 6 1 nil 0) (1 0 8 0 nil 0) (7 0 8 1 nil 0) (8 0 9 1 nil 0))) nil 7.02))
