; OM File Header - Saved 2024/08/20 22:49:52
; (7.04 :patc (om-make-point 280 110) (om-make-point 409 325) (om-make-point 500 400) "" 183 0 "2024/08/12 16:46:28" "2024/08/12 16:53:10")
; End File Header
(in-package :om)(load-lib-for (quote ("OMTristan")))(setf *om-current-persistent* (om-load-patch1 "ornament" (quote ((let ((box (om-load-boxout "output 3" 2 (om-make-point 172 177) (quote ((om-load-inputfun (quote input-funbox) "" "out" nil))) nil nil))) (when (fboundp (quote set-active)) (set-active box nil)) box) (let ((box (om-load-boxout "output 2" 1 (om-make-point 119 177) (quote ((om-load-inputfun (quote input-funbox) "" "out" nil))) nil nil))) (when (fboundp (quote set-active)) (set-active box nil)) box) (let ((box (om-load-boxout "output" 0 (om-make-point 72 177) (quote ((om-load-inputfun (quote input-funbox) "" "out" nil))) nil nil))) (when (fboundp (quote set-active)) (set-active box nil)) box) (let ((box (om-load-boxin "input" 0 (om-make-point 63 63) "" nil nil nil))) (when (fboundp (quote set-active)) (set-active box nil)) box) (let ((box (om-load-boxcall (quote genfun) "ARPEGGIO 2" (quote arpeggio) (quote ((om-load-inputfun (quote input-funbox) "" "OBJ" nil) (om-load-inputfun (quote input-funbox) "" "DUR" 2000) (om-load-inputfunmenu1 (quote input-funmenu) "" "DIRECTION" (quote up) (list (list "up" (quote (quote up))) (list "down" (quote (quote down))))) (om-load-inputfun (quote input-funbox) "" "CURVE" 50))) (om-make-point 68 122) nil nil nil nil 1))) (when (fboundp (quote set-active)) (set-active box nil)) box) (let ((box (om-load-boxcall (quote genfun) "TRILL" (quote trill) (quote ((om-load-inputfun (quote input-funbox) "" "CHORD" nil) (om-load-inputfun (quote input-funbox) "" "FREQ" 10) (om-load-inputfun (quote input-funbox) "" "DUR" 2000))) (om-make-point 177 122) nil nil nil nil 1))) (when (fboundp (quote set-active)) (set-active box nil)) box) (let ((box (om-load-boxcall (quote genfun) "ARPEGGIO" (quote arpeggio) (quote ((om-load-inputfun (quote input-funbox) "" "OBJ" nil) (om-load-inputfun (quote input-funbox) "" "DUR" 2000) (om-load-inputfunmenu1 (quote input-funmenu) "" "DIRECTION" (quote down) (list (list "up" (quote (quote up))) (list "down" (quote (quote down))))) (om-load-inputfun (quote input-funbox) "" "CURVE" 50))) (om-make-point 121 122) nil nil nil nil 1))) (when (fboundp (quote set-active)) (set-active box nil)) box))) (quote ((5 0 0 0 nil 0) (6 0 1 0 nil 0) (4 0 2 0 nil 0) (3 0 4 0 nil 0) (3 0 5 0 nil 0) (3 0 6 0 nil 0))) nil 7.04))
