; OM File Header - Saved 2024/08/20 22:49:52
; (7.04 :patc (om-make-point 40 40) (om-make-point 217 50) (om-make-point 500 400) "" 183 0 nil "2024/08/12 18:03:30")
; End File Header
(in-package :om)(load-lib-for (quote nil))(setf *om-current-persistent* (om-load-patch1 "voice-converter" (quote ((let ((box (om-load-boxin "input 2" 1 (om-make-point 38 49) "" nil nil nil))) (when (fboundp (quote set-active)) (set-active box nil)) box) (let ((box (om-load-boxout "output" 0 (om-make-point 18 151) (quote ((om-load-inputfun (quote input-funbox) "" "out" nil))) nil nil))) (when (fboundp (quote set-active)) (set-active box nil)) box) (let ((box (om-load-boxin "input" 0 (om-make-point 8 49) "" nil nil nil))) (when (fboundp (quote set-active)) (set-active box nil)) box) (let ((box (om-load-boxcall (quote lispfun) "POLY->VOICE" (quote poly->voice) (quote ((om-load-inputfun (quote input-funbox) "SELF" "SELF" nil) (om-load-inputfun (quote input-funbox) "NUM" "NUM" nil))) (om-make-point 6 108) nil nil nil nil 1))) (when (fboundp (quote set-active)) (set-active box nil)) box))) (quote ((3 0 1 0 nil 0) (2 0 3 0 nil 0) (0 0 3 1 nil 0))) nil 7.04))
